<?xml version="1.0" encoding="UTF-8" standalone="no"?>
<!-- Created with Inkscape (http://www.inkscape.org/) -->

<svg
   version="1.1"
   id="svg824"
   width="1094.6667"
   height="1094.6667"
   viewBox="0 0 1094.6667 1094.6667"
   sodipodi:docname="logo.svg"
   inkscape:version="1.1.1 (3bf5ae0d25, 2021-09-20)"
   xmlns:inkscape="http://www.inkscape.org/namespaces/inkscape"
   xmlns:sodipodi="http://sodipodi.sourceforge.net/DTD/sodipodi-0.dtd"
   xmlns="http://www.w3.org/2000/svg"
   xmlns:svg="http://www.w3.org/2000/svg">
  <defs
     id="defs828" />
  <sodipodi:namedview
     id="namedview826"
     pagecolor="#ffffff"
     bordercolor="#666666"
     borderopacity="1.0"
     inkscape:pageshadow="2"
     inkscape:pageopacity="0.0"
     inkscape:pagecheckerboard="0"
     showgrid="false"
     inkscape:zoom="0.52257857"
     inkscape:cx="9.5679392"
     inkscape:cy="655.40383"
     inkscape:window-width="1920"
     inkscape:window-height="1017"
     inkscape:window-x="1912"
     inkscape:window-y="-8"
     inkscape:window-maximized="1"
     inkscape:current-layer="g830" />
  <g
     inkscape:groupmode="layer"
     inkscape:label="Image"
     id="g830">
    <g
       id="g1030"
       transform="translate(26.036256,-23.523531)">
      <path
         style="fill:#eed0d1;stroke-width:1.33333"
         d="M 670.55807,958.0168 C 646.39238,953.43394 620.06015,941.55904 598.66668,925.59636 577.17267,909.55865 543.32995,872.09812 523.91547,842.85419 503.03348,811.39977 492.41159,786.26465 466.64544,707.33335 427.22101,586.56166 411.12089,555.74035 352.78385,489.36216 337.108,471.52556 299.0703,431.0436 297.40462,430.42433 c -0.62772,-0.23337 -5.72681,-4.76468 -11.33133,-10.06957 -13.25655,-12.54785 -12.99896,-13.10047 8.85225,-18.99081 16.51434,-4.45171 31.54779,-9.83712 41.18492,-14.75362 4.01314,-2.04734 6.16826,-4.56353 9.39326,-10.96696 l 4.18522,-8.31003 -6.58005,6.13943 c -9.99317,9.32401 -15.87337,12.6185 -30.44221,17.05576 -15.15702,4.61642 -44.71753,10.80482 -51.61198,10.80482 -2.53564,0 -4.96531,0.35505 -5.39925,0.789 -0.43395,0.43396 13.36362,14.68396 30.66128,31.66666 17.29765,16.98272 36.94811,37.2865 43.66769,45.1195 24.80036,28.90975 58.34666,80.12708 78.1699,119.34715 9.27053,18.34165 13.46205,28.733 20.97505,52 14.1338,43.77095 28.48832,92.09939 34.77443,117.0777 2.48139,9.85996 9.96728,32.62873 15.66284,47.63937 2.25259,5.93671 2.25988,6.43888 0.12453,8.57418 -2.13529,2.1353 -3.2274,1.78362 -18.64634,-6.00437 -55.90827,-28.23886 -84.47333,-68.74296 -133.20246,-188.87585 -16.45349,-40.56311 -29.04505,-66.78479 -41.93716,-87.33334 -9.75928,-15.55519 -33.7066,-50.36526 -39.09839,-56.83383 -1.91041,-2.29193 -6.47348,-7.98969 -10.14015,-12.66169 -7.86004,-10.01511 -24.28144,-28.4636 -46.73534,-52.50448 -8.90404,-9.53334 -16.88114,-18.6439 -17.72691,-20.24568 -5.15285,-9.75898 1.02811,-16.75019 33.79559,-38.22582 47.3276,-31.01825 58.08996,-46.68773 94.00167,-136.86184 27.03266,-67.8789 32.75836,-77.21593 53.36136,-87.01769 13.26016,-6.30844 22.88706,-8.20842 41.30364,-8.15171 39.7986,0.12253 72.41655,14.13137 108.412,46.56106 7.9266,7.14139 14.87952,12.44974 15.45095,11.79634 0.57141,-0.6534 2.69785,-5.84067 4.72543,-11.52726 9.25938,-25.96916 25.20044,-40.34204 50.55129,-45.57841 23.31095,-4.81501 43.06738,-1.39721 72.36722,12.51928 28.09124,13.34245 51.21377,32.62021 75.49969,62.94575 7.66964,9.577 16.60604,24.58737 35.70556,59.97426 15.51192,28.7399 26.5354,46.29738 36.26858,57.76623 4.76322,5.61263 24.28728,24.94728 29.91289,29.62272 2.80852,2.33416 7.2064,5.98051 9.77307,8.103 8.73771,7.22562 17.05756,12.26208 32.37155,19.59627 18.65449,8.93403 23.62845,13.755 23.62845,22.90172 0,8.884 -3.30328,14.48536 -13.20112,22.38508 -26.062,20.80076 -37.85877,38.88572 -47.43159,72.7147 -2.58534,9.13623 -4.69608,17.53623 -4.6905,18.66667 0.005,1.13042 7.22369,14.65533 16.04029,30.05533 22.13017,38.65489 32.46891,59.34894 40.59948,81.26412 16.72088,45.06958 23.61307,86.45629 20.6828,124.19765 -3.93728,50.71161 -13.6262,84.93187 -31.92985,112.77295 -10.96596,16.67996 -16.96254,23.68884 -33.82675,39.53716 -29.37739,27.60771 -51.45418,39.5212 -92.24276,49.77777 -14.04924,3.53279 -18.84486,4.08596 -39.33334,4.53708 -16.63484,0.36627 -26.23529,-0.0365 -33.44195,-1.40328 z m 13.44575,-100.01869 c 10.00992,-5.04091 12.63784,-7.95774 14.02827,-15.57048 1.91308,-10.47435 0.44248,-14.20531 -60.34422,-153.09428 -28.54481,-65.22084 -33.68785,-77.78581 -33.68785,-82.30292 0,-4.15738 1.43537,-3.86714 12.32341,2.4918 11.12611,6.498 19.20124,8.02972 22.56743,4.28067 2.34501,-2.61173 6.44249,-16.64646 6.44249,-22.06688 0,-6.16062 -6.49061,-16.6129 -13.72914,-22.10902 -11.40552,-8.66002 -74.36986,-52.50908 -82.19242,-57.23968 -8.8362,-5.34358 -15.62879,-5.82184 -19.70355,-1.3873 -1.51613,1.65 -10.99881,21 -21.07264,43 -15.08758,32.94946 -18.30636,41.05757 -18.26116,46 0.11027,12.06283 5.78775,19.79196 22.61418,30.78633 10.2101,6.6713 17.6408,8.84236 23.12601,6.7569 4.51872,-1.71802 5.72181,-3.40951 9.95076,-13.99028 4.06011,-10.15835 6.53211,-12.08599 10.00269,-7.79999 1.27567,1.57537 22.27352,52.82543 46.6619,113.88902 24.38839,61.06357 45.72723,113.8074 47.41964,117.20849 1.69241,3.4011 5.60909,8.3511 8.70375,11 7.43717,6.36595 12.74069,6.39707 25.15045,0.14762 z m 176.78123,-83.99159 c 2.48439,-3.79166 3.44807,-14.832 5.96811,-68.37329 1.80632,-38.37754 1.60384,-40.34456 -5.26824,-51.17993 -5.50773,-8.68417 -22.73381,-21.11995 -29.25543,-21.11995 -3.96652,0 -5.9022,3.37748 -7.49258,13.07351 -2.79114,17.01651 -1.91744,18.38013 -48.12745,-75.11543 -23.0845,-46.70631 -43.21581,-86.66759 -44.73625,-88.80284 -4.56704,-6.41382 -12.38401,-9.60019 -21.51944,-8.77183 -4.28268,0.38835 -8.72846,1.48765 -9.87947,2.44292 -4.91372,4.07803 -1.99964,11.3872 40.0089,100.35136 22.46758,47.58107 40.85016,87.63107 40.85016,89.00001 0,3.53653 -3.31122,3.08749 -9.75976,-1.32352 -18.26259,-12.4922 -24.29246,-10.70243 -27.52044,8.16853 -2.96164,17.31393 0.22452,29.36456 10.16125,38.43157 3.52512,3.21659 87.22551,61.59509 93.11895,64.94766 4.8198,2.74183 11.0468,1.94155 13.45169,-1.72877 z M 726.14174,663.97781 c -3.09202,-40.95939 -22.33401,-91.79613 -59.54313,-157.31113 -18.90783,-33.29145 -35.65423,-55.91856 -59.34899,-80.19012 -6.90647,-7.07459 -11.2496,-12.60825 -11.2496,-14.33333 0,-2.59914 0.725,-2.80996 9.66667,-2.81098 12.12317,-10e-4 27.38658,-3.1269 35.46829,-7.26297 6.31537,-3.23208 13.41695,-9.95077 18.74668,-17.73593 1.96989,-2.87743 4.05045,-4.33334 6.19255,-4.33334 3.18774,0 19.40457,9.07754 47.92581,26.82698 8.06667,5.02006 27.86667,19.0312 44,31.13584 16.13334,12.10464 29.93334,21.81766 30.66667,21.5845 0.73333,-0.23316 3.9306,-5.17668 7.10503,-10.98562 3.17442,-5.80894 11.12442,-18.58116 17.66666,-28.38272 6.54224,-9.80156 11.85265,-18.50156 11.8009,-19.33334 -0.0913,-1.46768 -8.0489,-8.57242 -54.44351,-48.60856 -49.15325,-42.41669 -78.61919,-60.95101 -104.46307,-65.70816 -7.19352,-1.32412 -11.20028,-1.32005 -19.95603,0.0203 -14.71336,2.25236 -29.60181,7.10276 -37.70998,12.28525 -30.83897,19.71133 -56.92142,23.06188 -91.06806,11.69861 -4.6396,-1.54396 -8.76809,-2.47472 -9.17445,-2.06837 -0.40635,0.40636 0.98197,1.15553 3.08517,1.66483 2.1032,0.50929 5.5262,2.11653 7.60668,3.57162 2.57656,1.80207 8.63397,3.31204 18.99755,4.73568 12.93157,1.77639 17.2217,1.83959 28.58741,0.42115 19.16801,-2.39217 21.8118,-3.50164 44.4629,-18.65897 9.08513,-6.07947 25.29606,-10.9391 27.87804,-8.35712 2.05762,2.05762 0.90529,2.76126 -7.9063,4.82786 -9.91594,2.3256 -18.30873,6.05522 -25.74009,11.43847 -13.77087,9.97555 -33.22474,16.06063 -51.39552,16.07627 -15.21202,0.0133 -25.85316,-2.79014 -50,-13.17162 -41.42317,-17.80912 -74.21415,-18.91786 -99.21837,-3.35485 -5.60714,3.48997 -26.49915,23.236 -31.76512,30.02273 -14.4532,18.62714 -26.84861,40.17787 -26.09584,45.37043 0.32951,2.2729 2.42769,3.47083 10.41265,5.94498 14.14252,4.38208 26.45718,5.29916 33.64039,2.50522 7.3791,-2.87012 16.99948,-12.13287 22.394,-21.56151 2.35275,-4.11217 5.08308,-7.78573 6.0674,-8.16345 1.99971,-0.76736 13.35202,6.87701 14.44584,9.72749 1.14776,2.991 -1.82748,2.09583 -7.21429,-2.1706 -2.77772,-2.2 -5.32439,-4 -5.65924,-4 -1.41489,0 -8.85828,13.50314 -8.27577,15.01316 1.01006,2.61838 23.86213,16.93907 40.10868,25.1349 22.22297,11.21073 27.1515,12.08699 65.22515,11.5966 30.30416,-0.39032 32.44505,-0.25292 41.93452,2.6914 12.94744,4.01721 22.34269,10.2198 34.47468,22.75959 21.01549,21.72189 52.92699,63.77581 76.99859,101.47103 16.30048,25.52593 34.11001,67.06367 48.73521,113.66667 3.1644,10.08333 5.99811,18.33333 6.29714,18.33333 0.29901,0 0.13526,-5.41 -0.3639,-12.02221 z M 483.33335,398.61959 c -9.486,-0.8287 -13.36588,-1.67139 -19.33334,-4.19914 -11.2887,-4.78176 -24.48265,-12.75209 -26.52608,-16.02413 -2.85357,-4.5693 -0.52256,-4.23716 6.51402,0.92817 15.14289,11.11591 41.27918,18.07611 56.97923,15.1738 17.43393,-3.22284 26.93048,-9.2244 37.86574,-23.93012 3.7769,-5.07916 7.34104,-9.23483 7.92032,-9.23483 1.44102,0 6.7776,6.91362 5.96434,7.72688 -0.35922,0.35922 -1.55998,-0.0995 -2.66836,-1.01937 -2.78556,-2.31183 -5.5143,-0.94281 -8.10446,4.06601 -2.60512,5.03775 -12.23816,14.27347 -20.61141,19.76129 -9.23452,6.05229 -21.35433,8.20561 -38,6.75144 z M 592.911,390.16493 c -1.60104,-0.64262 -4.11098,-1.29592 -5.57765,-1.45177 -7.73741,-0.82215 -13.97089,-2.8946 -20.87249,-6.93952 -4.21916,-2.47279 -8.05895,-5.12336 -8.53287,-5.89018 -1.80032,-2.91298 0.68711,-2.61614 5.95757,0.71096 12.79135,8.07483 17.72067,9.19599 40.91007,9.30485 21.16156,0.0993 21.58167,0.0447 29.98284,-3.89926 4.68631,-2.2 9.63158,-4.9 10.98947,-6 4.7078,-3.81365 10.14939,-13.05172 13.43473,-22.80787 1.81594,-5.39258 3.87455,-9.99564 4.5747,-10.22902 0.70016,-0.23339 4.78668,1.41042 9.08117,3.65292 18.01792,9.4086 34.55852,8.50201 45.93196,-2.51752 4.38779,-4.25127 6.77619,-7.90688 7.88506,-12.06868 l 1.5907,-5.97016 -5.13312,-4.38678 c -12.90307,-11.02698 -37.00927,-23.05789 -50.14895,-25.0283 -7.66529,-1.14948 -10.17881,-2.64995 -8.03324,-4.79552 1.23818,-1.23818 3.6235,-1.098 10.65552,0.6262 11.03662,2.70609 24.98947,9.49732 41.39418,20.14764 16.20393,10.51998 17.31235,13.19098 10.7214,25.83585 -5.06496,9.71723 -11.66203,14.7318 -24.3558,18.5134 -8.0012,2.38363 -16.88258,0.79104 -28.99487,-5.19929 -8.89597,-4.39964 -10.36445,-4.60308 -10.39076,-1.43954 -0.0607,7.30003 -6.74504,19.64016 -13.90299,25.66667 -2.17753,1.83333 -5.42781,4.68741 -7.22286,6.3424 -1.79504,1.655 -6.3217,3.97412 -10.05923,5.15363 -7.95695,2.51108 -35.65936,4.3648 -39.88454,2.66889 z m 50.3895,-96.88473 c -1.69867,-2.74852 1.55233,-4.1051 8.84247,-3.6898 5.32052,0.30309 7.19038,0.92972 7.19038,2.40961 0,2.50468 -14.55766,3.66708 -16.03285,1.28019 z m -273.96716,43.89577 c 0,-0.73333 -0.6,-0.96252 -1.33333,-0.50929 -0.73333,0.45322 -1.33333,1.42404 -1.33333,2.15737 0,0.73333 0.6,0.96252 1.33333,0.50929 0.73333,-0.45322 1.33333,-1.42404 1.33333,-2.15737 z m 6.77884,-8.39999 c 1.4789,-2.50654 4.10054,-5.48228 5.82587,-6.61276 1.72532,-1.13048 4.48538,-3.9491 6.13346,-6.26361 2.84697,-3.99821 2.86125,-4.13583 0.28602,-2.75761 -2.99742,1.60417 -14.42585,13.91533 -16.4792,17.75205 -2.4436,4.56589 1.43507,2.62552 4.23385,-2.11807 z m 20.91591,-20.52688 c 0.32478,-0.97433 -0.28478,-1.27232 -1.58333,-0.77401 -1.16128,0.44563 -2.11141,1.39603 -2.11141,2.11201 0,1.75252 3.03037,0.65512 3.69474,-1.338 z m 65.27748,-15.72132 c -0.44305,-0.44305 -1.59306,-0.49041 -2.55556,-0.1052 -1.06364,0.42563 -0.7477,0.74158 0.80556,0.80555 1.40555,0.0579 2.19306,-0.25724 1.75,-0.70029 z m -14.63889,-1.44688 c -1.28333,-0.33536 -3.38333,-0.33536 -4.66667,0 -1.28333,0.33538 -0.23333,0.60978 2.33334,0.60978 2.56666,0 3.61666,-0.2744 2.33333,-0.60978 z m 138.0674,-76.88385 c 2.3733,-0.99163 7.16051,-4.26566 10.63826,-7.27562 3.64084,-3.15112 8.35277,-5.85342 11.10765,-6.37024 7.64462,-1.43413 19.19416,0.19028 28.14818,3.95898 4.56032,1.91941 9.79574,3.48984 11.63426,3.48984 4.75238,0 7.93408,-5.33434 7.06159,-11.83919 -1.13319,-8.44857 -4.75277,-14.26389 -14.8022,-23.7816 -11.36023,-10.75918 -22.70809,-16.656 -38.02568,-19.75974 -13.41914,-2.71906 -20.4832,-1.39716 -31.873,5.96442 -18.57351,12.00464 -24.18846,26.95393 -16.13971,42.97049 5.55803,11.06012 21.28389,17.22487 32.25065,12.64266 z m -196.66785,-1.41134 c 1.98025,-1.03453 5.40045,-3.80842 7.60045,-6.16421 2.2,-2.3558 5.93073,-5.10936 8.29051,-6.11904 5.52668,-2.36471 15.92494,-2.34712 22.68616,0.0384 11.31922,3.99365 22.06228,3.29203 27.12589,-1.7716 4.56733,-4.56732 4.94219,-9.00756 1.41569,-16.76923 -2.0021,-4.40656 -4.37188,-6.43834 -13.63738,-11.69237 -16.93507,-9.60308 -29.69358,-13.36122 -45.88087,-13.51462 -11.72396,-0.11106 -14.2185,0.29051 -20.66667,3.3272 -18.08001,8.51459 -24.58429,20.78626 -19.91983,37.5829 1.81164,6.52369 8.3954,13.96388 13.72196,15.50696 6.42315,1.86075 15.26277,1.66603 19.26409,-0.42436 z"
         id="path1044" />
      <path
         style="fill:#e39fa1;stroke-width:1.33333"
         d="m 671.33335,956.54638 c -23.27933,-4.10522 -51.19242,-16.4042 -70.66667,-31.13693 -4.4,-3.3287 -16.10613,-14.15757 -26.01364,-24.06414 -41.21574,-41.21187 -66.36101,-79.79798 -84.72441,-130.01195 -3.48638,-9.53334 -7.69266,-20.93334 -9.3473,-25.33334 -1.65464,-4.4 -4.6126,-13.4 -6.57321,-20 -1.96063,-6.6 -4.37536,-14.1 -5.36607,-16.66667 -0.9907,-2.56666 -4.48585,-13.06666 -7.767,-23.33333 -25.89325,-81.01967 -47.01966,-123.87878 -83.14037,-168.66667 -24.03651,-29.8041 -63.41223,-72.28439 -90.80615,-97.96576 -8.27665,-7.75923 -9.46219,-9.40534 -7.89939,-10.96815 1.01134,-1.01132 9.24331,-3.88971 18.2933,-6.3964 17.67005,-4.89433 22.35998,-6.56628 36.37226,-12.9666 7.47911,-3.4162 9.53794,-3.86719 12,-2.62855 6.5907,3.31567 27.32018,8.25879 34.63412,8.25879 8.90017,0 15.60703,-2.87313 23.6329,-10.12403 l 5.17489,-4.6752 6.05402,4.62114 c 8.42881,6.43385 33.80949,21.58781 42.86072,25.59069 18.11066,8.00939 25.2767,9.03524 56.61533,8.10475 33.06612,-0.98179 41.31643,0.15402 56.93142,7.83762 15.12992,7.44494 35.32695,29.13786 65.15281,69.97837 42.629,58.37184 60.30698,93.44037 83.23107,165.10892 4.53455,14.17657 8.47111,25.54913 8.7479,25.27235 1.14497,-1.14498 -2.32199,-34.64483 -4.80008,-46.38127 -8.06784,-38.20987 -25.25769,-79.21882 -55.60239,-132.6478 -19.16644,-33.74705 -37.31826,-58.30991 -60.8665,-82.36398 -5.57016,-5.68981 -10.12756,-11.22839 -10.12756,-12.30793 0,-2.46316 2.85045,-3.04679 18.66667,-3.82195 17.90709,-0.87763 24.92749,-3.38889 34.65779,-12.39744 4.42784,-4.0994 9.07058,-9.18013 10.31722,-11.29051 1.41952,-2.40307 3.37816,-3.83707 5.2409,-3.83707 3.38506,0 40.12545,21.36857 59.11743,34.38327 6.96666,4.77407 19.86666,14.16747 28.66666,20.87422 21.35651,16.27642 33.36544,24.74252 35.09662,24.74252 0.78356,0 3.70636,-4.35 6.49512,-9.66667 2.78876,-5.31667 10.95869,-18.55187 18.1554,-29.41156 7.19672,-10.85969 12.89772,-20.537 12.66891,-21.50511 -0.69151,-2.92573 -72.75842,-65.60989 -93.92701,-81.69819 -32.00732,-24.32582 -59.29632,-36.1287 -79.82237,-34.5243 -18.73215,1.46418 -33.09591,6.43862 -55.85358,19.34314 -15.72741,8.91808 -25.65588,11.46815 -44.14643,11.33872 -18.08013,-0.12653 -27.61518,-2.4519 -55.33333,-13.49432 -29.41936,-11.72016 -49.14315,-14.76818 -68.17107,-10.53486 -29.97271,6.66829 -56.4965,29.35162 -73.53335,62.88624 -8.75561,17.23418 -22.42809,28.66097 -41.52437,34.70399 -12.77723,4.04336 -35.92732,9.13986 -50.68042,11.15732 -5.81673,0.79542 -10.81233,1.68269 -11.10135,1.9717 -0.28901,0.28902 2.37014,3.10755 5.9092,6.26343 14.22212,12.68219 59.96061,58.57811 69.59759,69.83713 17.6688,20.64273 40.47584,53.10434 59.48555,84.66667 18.6842,31.02191 31.10356,58.01062 41.10843,89.33334 15.12484,47.35213 29.36011,95.3779 34.26357,115.59559 2.3016,9.4898 9.53859,31.54523 15.54114,47.36311 3.97997,10.48801 1.7779,10.75105 -15.99323,1.91045 -19.30432,-9.60329 -32.76201,-19.65649 -49.60588,-37.05668 -29.27401,-30.24088 -48.5553,-65.15637 -83.4668,-151.1458 -22.45355,-55.30461 -34.99332,-79.25603 -61.44029,-117.35317 -21.13494,-30.44512 -36.47668,-48.93204 -75.77829,-91.31351 -17.96152,-19.36906 -19.94377,-22.03113 -19.94377,-26.78353 0,-6.80031 4.68561,-10.90778 38,-33.31132 43.43542,-29.20982 57.21269,-49.56404 90.63705,-133.90515 25.56427,-64.50739 30.4237,-73.40574 45.5977,-83.49634 23.72904,-15.77961 63.32721,-16.91332 100.15756,-2.86753 14.32389,5.46261 39.00908,21.04184 50.5425,31.89819 10.3031,9.69828 20.07165,17.79901 21.46353,17.79901 0.68021,0 3.11615,-5.25399 5.41319,-11.67553 9.33898,-26.10778 25.64554,-41.1005 50.40876,-46.3473 37.34844,-7.91335 87.16321,12.40724 125.70025,51.27602 20.15807,20.33158 33.69451,40.3909 55.38934,82.08014 20.95199,40.26175 29.61444,52.68661 52.52145,75.33334 20.73222,20.49664 35.75061,31.54339 56.99307,41.92116 10.3398,5.05139 18.65314,10.0224 20.33334,12.15843 4.31781,5.4892 3.8648,14.45265 -1.12836,22.32604 -2.18384,3.44357 -4.43384,6.26311 -5,6.26564 -1.94872,0.009 -19.2403,15.77092 -26.50936,24.16477 -7.7565,8.95667 -11.09795,14.35978 -16.81987,27.19758 -5.07909,11.39553 -13.27153,40.65739 -12.51317,44.69469 0.35073,1.86724 4.36681,9.66724 8.92462,17.33334 23.56018,39.62752 38.54955,68.95712 46.9866,91.93836 20.61132,56.14205 26.23847,102.9208 18.28448,152 -6.7423,41.60275 -14.0456,61.75454 -33.10052,91.33334 -7.38368,11.46164 -35.78596,40.1492 -50.396,50.90219 -24.00437,17.66721 -57.01937,30.46437 -90.31596,35.00792 -14.13354,1.92863 -39.24778,1.59348 -52.23686,-0.69709 z m 13.33334,-96.92543 c 13.50432,-7.11626 15.74406,-10.75347 14.95592,-24.28759 -0.50595,-8.68835 -2.62383,-14.17075 -30.6469,-79.33334 -16.55685,-38.5 -36.35241,-84.1 -43.9901,-101.33333 -16.1487,-36.43708 -19.99911,-46.29492 -18.45523,-47.2491 0.61533,-0.38029 5.83321,1.99518 11.59527,5.27883 5.76205,3.28364 12.10753,5.97027 14.10106,5.97027 6.19798,0 10.28218,-4.93552 13.06126,-15.78378 5.54077,-21.62861 3.81625,-23.72976 -51.28795,-62.48867 -43.32079,-30.47076 -50.82759,-35.06089 -57.33928,-35.06089 -6.99003,0 -10.62603,5.87469 -30.12106,48.66667 -18.27183,40.107 -18.80909,41.54288 -18.10827,48.39621 1.34716,13.17408 7.1531,19.96903 27.85827,32.60379 6.39091,3.89988 9.56782,5 14.43888,5 8.52874,0 12.21812,-3.2492 16.7208,-14.72576 2.62038,-6.67891 4.2857,-9.26928 5.78216,-8.99409 1.43771,0.26438 16.6891,36.79884 48.26814,115.62556 25.39147,63.38147 47.59147,117.56595 49.33333,120.40996 3.97319,6.48716 13.59215,13.03288 19.06228,12.97192 2.25762,-0.0252 8.90475,-2.57514 14.77142,-5.66666 z m 173.31103,-80.94578 c 6.07464,-2.30957 6.95877,-7.17181 9.23113,-50.7662 2.90343,-55.70108 2.83132,-60.33503 -1.06918,-68.71184 -7.70224,-16.54146 -33.21924,-32.7324 -39.55499,-25.09828 -0.95803,1.15434 -2.41201,5.80434 -3.23107,10.33333 -0.81906,4.52897 -2.05869,8.23451 -2.75473,8.23451 -0.69604,0 -20.46552,-38.21378 -43.93219,-84.9195 -23.46667,-46.70572 -44.16667,-86.51272 -46,-88.46002 -5.71263,-6.06772 -10.15211,-7.61716 -20.19834,-7.04949 -10.90024,0.61592 -13.48434,2.56025 -13.38073,10.06791 0.0876,6.34842 -1.94513,1.76718 44.04514,99.26543 34.07428,72.23664 39.13717,83.76233 36.79424,83.76233 -0.40684,0 -4.71896,-2.4 -9.5825,-5.33333 -8.94506,-5.39503 -14.34214,-6.49877 -19.16262,-3.91893 -3.33278,1.78365 -4.93144,5.9513 -7.20262,18.77697 -1.48582,8.39063 -1.50192,11.49392 -0.0911,17.56325 3.25836,14.01702 6.58634,17.0615 56.77848,51.94167 40.87441,28.40499 51.66789,35.39939 54.9132,35.58486 0.50227,0.0287 2.48128,-0.544 4.39783,-1.27267 z M 587.06623,215.13778 c 2.34692,-1.20757 6.88523,-4.49316 10.08512,-7.30131 3.19991,-2.80816 7.90942,-5.49809 10.46558,-5.97764 7.38604,-1.38562 19.00969,0.30858 28.20304,4.11074 14.79752,6.11992 21.01965,2.8795 19.64558,-10.23122 -0.80702,-7.70033 -2.92898,-11.92038 -10.0673,-20.02144 -17.82579,-20.22992 -50.37557,-30.95735 -68.67079,-22.63183 -10.00024,4.55076 -20.19614,12.86679 -24.2441,19.77413 -4.78992,8.17337 -5.10646,19.80338 -0.76432,28.0814 6.9186,13.18986 23.9837,20.04404 35.34719,14.19717 z m -192.05808,-5.38983 c 10.74612,-10.36524 17.7694,-11.78392 35.27814,-7.12609 19.20735,5.10971 31.55899,-1.40091 29.28166,-15.43449 -1.38596,-8.54067 -6.45928,-13.2774 -22.65296,-21.15006 -32.48559,-15.79305 -59.35859,-14.62251 -76.13842,3.31648 -6.63189,7.09003 -8.24275,12.3651 -6.99448,22.9048 1.84152,15.5487 11.98876,24.2765 27.22605,23.41755 7.67501,-0.43265 8.79359,-0.90631 14.00001,-5.92819 z"
         id="path1042" />
      <path
         style="fill:#de7d81;stroke-width:1.33333"
         d="m 683.69477,957.917 c -0.26036,-0.26037 -4.9482,-1.15846 -10.4174,-1.99578 -21.56715,-3.30184 -44.18018,-12.42091 -65.09324,-26.2499 -13.67075,-9.03992 -46.64998,-41.50113 -63.33275,-62.33796 -34.32939,-42.87751 -46.36666,-68.82366 -80.72434,-174.00001 -35.4922,-108.6494 -52.10747,-139.77801 -109.04646,-204.29808 -22.93364,-25.98711 -49.29362,-53.46919 -63.65874,-66.36859 -6.94163,-6.23333 -12.65128,-12.0368 -12.68815,-12.8966 -0.0696,-1.62452 3.29856,-2.94931 16.26632,-6.39789 4.21667,-1.12136 10.87297,-2.90682 14.79179,-3.96767 3.91882,-1.06085 12.9422,-4.42396 20.05196,-7.47357 11.12634,-4.77247 13.43029,-5.34255 16.54153,-4.093 7.60512,3.05438 29.18299,8.1529 34.28139,8.10017 7.70912,-0.0797 14.29573,-2.82107 21.72665,-9.04259 l 6.52691,-5.46463 14.95117,9.87577 c 18.79715,12.41616 39.00534,22.43078 52.79527,26.1639 9.97719,2.70096 12.47897,2.82782 38.70412,1.96239 31.97296,-1.05511 41.90206,0.237 56.34718,7.33267 15.07064,7.40292 39.66668,34.94646 73.24832,82.02612 36.48816,51.15444 52.19087,83.55305 74.53147,153.77722 4.79969,15.08708 8.97621,27.68105 9.28116,27.98661 1.70869,1.71216 1.82437,-2.71709 0.50311,-19.26392 -3.90139,-48.85859 -22.13314,-98.41752 -61.54721,-167.30234 -17.81744,-31.13992 -33.66444,-52.43389 -57.84566,-77.72852 -6.17236,-6.45656 -11.22249,-12.60656 -11.22249,-13.66667 0,-1.51325 2.22056,-1.93242 10.33334,-1.9506 12.09737,-0.0271 25.92837,-2.69573 33.20109,-6.406 4.53287,-2.3125 13.84071,-11.26354 20.78586,-19.98909 1.27616,-1.60331 2.79432,-2.9151 3.37368,-2.9151 1.32317,0 29.97118,16.7955 47.63639,27.92782 7.33168,4.62031 25.93168,17.83725 41.33333,29.37099 15.40164,11.53373 29.32407,21.66548 30.93872,22.515 3.65905,1.92513 3.81324,1.75653 12.63005,-13.81087 3.7371,-6.5984 11.83391,-19.47141 17.99292,-28.60671 6.15902,-9.1353 11.0279,-17.31392 10.81975,-18.1747 -0.67564,-2.7941 -73.54245,-66.0271 -94.26231,-81.79978 -23.5574,-17.93272 -46.87383,-30.2376 -64.70736,-34.14831 -9.21847,-2.0215 -11.97783,-2.11026 -21.28936,-0.68484 -14.32476,2.19288 -29.04787,7.03815 -38.78609,12.76424 -24.72205,14.53659 -38.78609,18.65142 -60.00001,17.55468 -15.30921,-0.79146 -27.78832,-4.10505 -52.68596,-13.98969 -23.90205,-9.48939 -32.61845,-11.48701 -49.98071,-11.45457 -18.96145,0.0355 -31.37073,3.90096 -48.22237,15.02144 -16.7618,11.06118 -30.21578,26.33821 -41.84518,47.5153 -11.63457,21.18654 -22.12392,30.34026 -41.82346,36.49798 -11.28811,3.52847 -37.66615,9.11877 -55.44233,11.74992 -4.03333,0.59699 -7.33333,1.69636 -7.33333,2.44305 0,0.74668 5.4,6.21934 12,12.16144 23.00803,20.71458 65.17523,64.90046 77.44031,81.14762 27.95419,37.03003 52.09695,75.44429 67.87628,108 9.1297,18.83626 12.82514,29.22287 32.0209,90 4.06828,12.88088 15.73516,53.7945 20.08286,70.42694 4.11859,15.75592 10.50764,35.61877 14.75326,45.86623 3.56465,8.60381 4.02082,13.04017 1.34089,13.04017 -3.54091,0 -29.86367,-14.41192 -40.28173,-22.05457 C 414.95367,784.7573 395.54563,761.86908 376.69069,730.00002 363.73008,708.0937 351.52488,681.81318 332.46138,634.76447 308.5235,575.68579 298.94334,556.69739 274.9641,520.80175 250.48223,484.15371 234.50878,464.54333 190.37677,416.95517 c -25.37919,-27.36674 -26.10948,-25.50813 22.95657,-58.42519 30.77511,-20.64617 47.29471,-39.94885 63.9034,-74.66937 4.37532,-9.14663 15.42371,-35.50706 24.55199,-58.57875 19.99759,-50.54387 24.13353,-59.65848 31.59348,-69.62419 14.69129,-19.62603 43.86429,-28.87506 76.76682,-24.33821 34.69609,4.78416 60.71333,17.87412 92.84587,46.71321 7.88052,7.0728 15.00285,12.63476 15.82742,12.3599 0.82456,-0.27486 3.42852,-5.90326 5.78658,-12.50756 12.16561,-34.07286 36.09636,-49.17747 74.05778,-46.74384 19.55269,1.25349 31.21599,5.02901 55.22891,17.87813 17.2721,9.24216 30.44775,19.18685 45.46571,34.31656 21.083,21.23987 34.23407,40.83085 57.28099,85.33081 18.83577,36.36891 31.96683,54.85606 53.31932,75.06797 19.14368,18.12109 34.4778,29.13893 52.70508,37.86956 21.51331,10.3046 24,12.60008 24,22.15456 0,9.06616 -2.93137,14.10429 -12.3516,21.22853 -8.82557,6.67454 -21.22554,19.04227 -27.75152,27.67939 -7.16613,9.48435 -13.75988,24.32793 -19.19498,43.21095 -5.45668,18.958 -5.77414,24.37301 -1.80499,30.78905 17.53844,28.35051 43.03163,75.68201 48.47485,90.00001 11.72468,30.84093 20.1762,60.98537 24.10207,85.96606 4.47585,28.48035 0.27932,80.57767 -9.23936,114.70061 -7.93967,28.46243 -23.22239,54.29635 -45.84264,77.49241 -31.91464,32.72707 -54.69111,46.13833 -96.39183,56.75751 -14.48287,3.6881 -21.38687,4.7063 -35.33334,5.21094 -9.53333,0.34496 -19.5455,0.84521 -22.24926,1.11168 -2.70376,0.26648 -5.12895,0.27146 -5.38932,0.0107 z m 0.88912,-96.96272 c 5.82112,-3.09151 11.76969,-7.24604 13.21905,-9.23229 3.51336,-4.81487 4.30812,-15.83776 1.80651,-25.0553 -2.10536,-7.75748 -48.98912,-117.80252 -71.29095,-167.33334 -14.86585,-33.01602 -21.0832,-48.34638 -20.03313,-49.39645 0.39224,-0.39224 5.42424,1.76797 11.18222,4.80048 8.279,4.36024 11.40708,5.36143 14.95306,4.786 6.40062,-1.03868 7.90265,-2.75851 10.90848,-12.49023 4.82332,-15.61611 2.64253,-26.83619 -6.98132,-35.91845 -2.39128,-2.25671 -18.74779,-14.20735 -36.34779,-26.55698 -61.19902,-42.9423 -61.38779,-43.04405 -71.05174,-38.29872 -4.66912,2.29271 -5.81925,4.4134 -24.08388,44.40768 -10.54934,23.1 -19.48208,44.20242 -19.85055,46.89424 -0.81336,5.94221 2.35283,15.81634 7.04362,21.96629 3.2928,4.31708 17.96943,15.02565 26.87633,19.60992 2.34692,1.20792 6.95088,2.19622 10.23103,2.19622 8.1214,0 13.21003,-4.43078 16.98779,-14.79166 1.59568,-4.3763 3.38777,-8.2576 3.98241,-8.62511 0.59464,-0.36751 1.96345,0.70092 3.04181,2.37428 1.07835,1.67337 22.17082,53.70524 46.87212,115.62638 24.70133,61.92113 46.49539,114.97883 48.43127,117.90599 4.30848,6.51466 13.95008,12.85948 19.4475,12.79772 2.23976,-0.0252 8.83502,-2.57515 14.65616,-5.66667 z m 176.41455,-83.00307 c 1.6088,-1.12685 3.49451,-4.27685 4.19044,-7 0.69595,-2.72316 2.325,-26.95951 3.62013,-53.85856 l 2.35478,-48.90738 -4.9706,-10.05732 c -3.97427,-8.04138 -6.49623,-11.23076 -12.58188,-15.91161 -11.3273,-8.71251 -16.48643,-11.53913 -21.0713,-11.54467 -5.48381,-0.007 -8.22949,3.32716 -9.87161,11.98602 -1.4,7.38218 -2.1225,8.99932 -3.43448,7.68733 -0.42136,-0.42136 -19.52267,-38.47136 -42.44735,-84.55556 -35.85553,-72.07836 -42.45263,-84.48355 -47.20028,-88.75561 -3.03547,-2.73138 -7.08769,-5.35986 -9.00493,-5.84106 -5.8965,-1.47992 -19.1791,0.33156 -22.15082,3.02093 -6.06788,5.49136 -4.48625,9.62281 38.80378,101.36243 22.20989,47.06687 40.16804,86.18456 39.907,86.92822 -0.26104,0.74364 -3.7372,-0.70955 -7.72479,-3.22932 -12.12807,-7.66375 -20.51751,-7.54947 -24.50589,0.33384 -2.94422,5.81941 -5.33379,21.2391 -4.51732,29.14988 0.93917,9.09973 6.56932,19.56462 13.56817,25.21949 2.95452,2.38719 25.40143,18.21866 49.88199,35.18104 38.17348,26.45011 45.202,30.84072 49.37,30.84072 2.67292,0 6.17616,-0.92197 7.78496,-2.04881 z M 584.06696,217.33678 c 2.60348,-0.72325 7.88548,-4.0054 11.73776,-7.29364 8.96469,-7.65212 15.38695,-9.47809 25.99542,-7.39101 4.36856,0.85946 11.22533,3.01433 15.23727,4.7886 13.43481,5.94152 18.96261,3.17396 18.96261,-9.49384 0,-9.76728 -3.35089,-16.07695 -14.11627,-26.58064 -14.03972,-13.69845 -33.28285,-22.04902 -50.74285,-22.01989 -9.07579,0.0151 -18.60295,3.9161 -29.31752,12.00426 -21.47046,16.20748 -17.20567,47.59292 7.50997,55.26728 7.40673,2.29984 8.79832,2.36773 14.73361,0.71888 z m -196.55121,-1.40612 c 2.02913,-0.77148 6.49737,-4.02928 9.92944,-7.23957 8.63288,-8.07506 15.01592,-9.6704 26.49317,-6.62159 17.48323,4.64425 26.779,4.18285 32.57888,-1.61703 2.84867,-2.84866 3.48187,-4.72414 3.47779,-10.30094 -0.007,-9.43691 -3.29275,-14.18071 -14.2425,-20.562 -19.99189,-11.65089 -34.42684,-15.61681 -53.37673,-14.66495 -13.64587,0.68542 -21.18639,3.5393 -29.74739,11.25853 -9.98975,9.00748 -12.60896,18.66362 -8.66493,31.94459 4.14589,13.96076 20.63956,22.71236 33.55227,17.80296 z"
         id="path1040" />
      <path
         style="fill:#dd5b60;stroke-width:1.33333"
         d="M 671.46279,955.27971 C 647.57627,950.76547 621.85885,939.48342 602.15814,924.87623 579.66302,908.19712 546.37064,871.36677 526.03787,840.66669 506.07472,810.52469 495.6672,785.76904 468.05409,702.74458 438.61597,614.23286 426.002,584.42166 403.42352,550.00002 379.1559,513.00324 330.35361,457.14356 289.66668,419.7926 c -5.31667,-4.88076 -9.66667,-9.50763 -9.66667,-10.28195 0,-0.77432 2.55,-2.07589 5.66667,-2.89237 18.61065,-4.87551 34.87672,-10.11253 45.10358,-14.52159 l 11.67604,-5.03381 9.66722,3.24228 c 26.75178,8.97224 40.46271,7.85492 51.80832,-4.22193 1.76532,-1.87911 3.75388,-3.41655 4.41903,-3.41655 0.66513,0 7.01054,3.84389 14.1009,8.54199 17.71556,11.73836 36.18707,21.26128 48.89158,25.20588 8.86606,2.7528 13.70518,3.35265 28.66667,3.55349 9.9,0.13293 22.8,-0.16749 28.66666,-0.66755 18.219,-1.55292 39.98308,4.32292 52,14.0389 22.11294,17.87886 73.99719,85.72143 96.35695,125.99396 16.84162,30.33372 34.72262,76.4588 48.97478,126.33334 2.33988,8.18822 4.66828,10.11362 4.66828,3.86029 0,-22.19184 -4.85944,-52.82799 -12.19143,-76.86029 -13.59989,-44.57687 -51.62364,-117.79933 -80.17007,-154.3838 -7.49632,-9.6071 -31.04204,-36.27138 -35.97184,-40.73618 -2.01667,-1.82646 -3.66667,-3.82164 -3.66667,-4.43376 0,-0.61211 3.9253,-1.11294 8.72289,-1.11294 10.76272,0 27.4002,-3.32837 34.34328,-6.87046 6.4762,-3.30392 16.02102,-12.00448 19.70042,-17.95788 1.53134,-2.47775 3.82326,-4.50499 5.09316,-4.50499 2.44854,0 40.45503,22.29919 56.76658,33.30611 5.33301,3.59868 21.02379,15.05444 34.86837,25.45722 13.84459,10.40279 26.5042,19.52494 28.1325,20.27144 3.96725,1.81884 5.98765,-0.0133 10.9361,-9.9158 2.1854,-4.37337 10.0496,-17.1747 17.476,-28.4474 7.81771,-11.86665 13.31831,-21.54038 13.06497,-22.97689 -0.65111,-3.69176 -69.8131,-64.1515 -95.10426,-83.13783 -23.5428,-17.67383 -46.79403,-29.76027 -63.96638,-33.25099 -15.05826,-3.06097 -39.47265,1.25128 -56.18394,9.92363 -24.14986,12.53259 -34.52181,17.05764 -43.46698,18.96367 -18.62967,3.9696 -37.36027,0.59382 -71.71604,-12.92519 -24.65238,-9.70072 -31.33827,-11.1824 -50.66667,-11.22835 -13.59484,-0.0323 -18.38689,0.50542 -26,2.9176 -10.62532,3.36658 -22.83475,10.26026 -33.80645,19.08774 -8.84051,7.1128 -23.58183,25.89436 -31.18245,39.7288 -11.7408,21.37028 -21.4284,29.95346 -41.0111,36.33571 -12.79398,4.16972 -41.43383,10.5572 -47.33578,10.5572 -5.47547,0 -16.66423,2.8214 -16.66423,4.2021 0,0.72295 14.80227,15.82324 32.89393,33.55618 38.52914,37.76521 51.88446,52.9551 72.54378,82.50888 34.99081,50.05537 55.3869,87.70466 67.30402,124.23694 15.05044,46.13757 27.67661,88.36905 37.91879,126.82924 4.175,15.67744 7.72989,26.55889 12.97981,39.73096 2.57156,6.45201 4.2894,12.11709 3.81744,12.58907 -2.41716,2.41715 -26.86089,-10.18468 -42.79109,-22.06071 -30.9083,-23.04223 -57.12594,-60.38841 -82.78515,-117.92475 -3.35248,-7.51735 -11.78147,-27.76791 -18.73108,-45.00124 -6.94963,-17.23333 -13.59182,-33.41433 -14.76043,-35.95779 -1.16861,-2.54344 -4.64675,-10.43459 -7.7292,-17.53587 -3.08244,-7.10128 -7.49213,-15.97928 -9.79929,-19.7289 -2.30718,-3.74963 -4.19486,-7.05891 -4.19486,-7.35396 0,-1.45126 -13.57506,-23.27994 -23.68793,-38.09015 -21.99538,-32.21208 -39.84622,-53.86527 -79.91927,-96.94254 -9.00963,-9.68505 -17.39488,-19.73505 -18.63392,-22.33333 -4.38165,-9.18844 -0.49345,-12.94305 44.24112,-42.72114 4.4,-2.9289 14.14592,-11.26669 21.65759,-18.52842 23.51502,-22.73256 33.66485,-41.22286 62.34831,-113.58205 9.27885,-23.40756 19.27148,-47.47866 22.20585,-53.49134 7.10688,-14.56239 16.15884,-23.90446 29.15128,-30.08554 13.00021,-6.18477 22.83197,-8.18346 39.97031,-8.12552 38.81941,0.13124 70.94068,14.17468 107.77187,47.11794 8.30785,7.43088 15.80785,13.27824 16.66667,12.99413 0.8588,-0.28411 3.66146,-6.23011 6.22813,-13.21333 10.1684,-27.66555 24.00149,-40.48754 49.56233,-45.93964 12.14947,-2.59147 29.60597,-1.70449 43.77101,2.22405 14.28425,3.9616 42.7476,18.20744 55.9618,28.00873 13.97469,10.36539 33.99434,30.39107 45.03605,45.04959 10.2118,13.55679 21.69031,32.81336 36.30243,60.90173 19.83611,38.13026 29.40392,51.43465 53.94487,75.01226 20.71561,19.90247 34.16457,29.63736 54.94465,39.77116 19.00772,9.26948 21.8102,11.91846 21.8102,20.61554 0,6.98248 -3.94788,13.11244 -13.20112,20.49769 -25.60054,20.43247 -36.05392,36.1314 -46.23544,69.4367 -7.11619,23.27814 -6.98324,24.99033 3.3132,42.66666 41.90784,71.94495 52.47552,97.19406 65.01276,155.33334 3.84058,17.81004 3.49628,67.56031 -0.64129,92.66667 -6.81527,41.35426 -15.47235,63.35596 -35.79141,90.96283 -8.58066,11.65827 -30.02582,33.47121 -41.50081,42.21255 -21.38938,16.29384 -47.12158,27.97241 -76.95589,34.92649 -18.84491,4.39256 -52.74055,5.62251 -69.2039,2.51115 z m 11.27443,-92.71338 c 14.34057,-6.91856 16.78199,-9.27237 18.75309,-18.08018 2.73244,-12.20987 2.80554,-12.01152 -49.55678,-134.48613 -5.01643,-11.73333 -13.69871,-31.23333 -19.29396,-43.33333 -14.0887,-30.46746 -23.67316,-53.41084 -22.71312,-54.37088 0.44405,-0.44404 4.65821,1.16774 9.36481,3.58176 8.78279,4.50469 15.6416,5.50098 20.38695,2.96134 5.68324,-3.04157 11.17481,-24.50885 8.52884,-33.34033 -3.1858,-10.63328 -8.77367,-15.59514 -50.8737,-45.17426 -49.13395,-34.52108 -52.08361,-36.30476 -60,-36.28214 -10.53589,0.0301 -9.20819,-2.0317 -34.74672,53.95784 -18.79139,41.19741 -19.20646,43.06586 -12.48602,56.20664 4.14757,8.10989 10.15297,13.53893 25.22127,22.80067 6.72286,4.1322 9.19978,4.91669 15.63334,4.95142 6.5612,0.0355 8.15669,-0.47021 11.25642,-3.56733 1.9864,-1.98473 4.8884,-6.78473 6.44887,-10.66667 1.56047,-3.88193 3.60985,-7.05806 4.55419,-7.05806 1.03146,0 19.95304,45.58629 47.39208,114.17807 25.12131,62.79794 47.41456,116.76808 49.54057,119.93364 3.58547,5.33863 15.35611,13.22163 19.74212,13.22163 0.87172,0 6.6532,-2.44516 12.84775,-5.4337 z M 860.07388,779.9605 c 5.8944,-3.15458 6.51276,-7.0692 9.20552,-58.27674 2.77093,-52.69395 2.58327,-56.43177 -3.34212,-66.56534 -6.98391,-11.94387 -28.53295,-27.09591 -35.90428,-25.24581 -4.25523,1.06798 -7.41005,5.89508 -8.3286,12.74328 -0.39719,2.96128 -1.24222,5.38413 -1.87786,5.38413 -0.63562,0 -19.99553,-37.65 -43.02201,-83.66667 -26.30303,-52.5646 -43.27983,-85.00342 -45.66875,-87.2626 -6.19332,-5.857 -12.48657,-7.83406 -21.82876,-6.8576 -11.13121,1.16344 -14.00033,3.66554 -13.88119,12.1055 0.0808,5.72458 5.18743,17.35481 40.47981,92.19193 22.21304,47.10251 40.12393,85.90435 39.80197,86.22629 -0.32195,0.32195 -4.81261,-1.58349 -9.97927,-4.23433 -8.7487,-4.48868 -9.72913,-4.70905 -14.275,-3.20879 -6.43386,2.12338 -8.12953,5.09556 -10.86464,19.04363 -1.89785,9.67832 -2.02684,12.97881 -0.75558,19.33333 1.66786,8.33707 8.34405,19.33027 14.4792,23.84189 7.80081,5.73648 83.81093,58.38042 89.52424,62.00369 6.2478,3.96224 11.83059,4.80263 16.23732,2.44421 z M 587.06742,216.86371 c 2.37329,-0.99162 7.1605,-4.26565 10.63825,-7.27561 9.7069,-8.40127 20.4239,-9.07856 37.01008,-2.339 11.04346,4.48736 16.26902,4.46221 19.85416,-0.0956 3.70039,-4.70427 3.55635,-12.73512 -0.37937,-21.15352 -4.25279,-9.09656 -19.2818,-23.02703 -31.36413,-29.07158 -11.54067,-5.77356 -27.50529,-9.56334 -35.6077,-8.45278 -8.85247,1.21337 -21.51539,8.27438 -29.93089,16.68989 -6.09174,6.09174 -7.86062,8.88527 -9.2235,14.56639 -2.25322,9.39255 -0.86304,17.44932 4.34524,25.18251 7.6671,11.38401 23.1964,16.73818 34.65786,11.94928 z m -196.66786,-1.41133 c 1.98025,-1.03453 5.40045,-3.80843 7.60045,-6.16421 7.90766,-8.46763 14.5589,-9.55635 31.52088,-5.1596 12.81374,3.32148 20.55616,2.65066 26.42744,-2.28968 7.11956,-5.99071 6.72507,-18.80186 -0.81101,-26.33794 -5.0692,-5.0692 -20.76945,-13.40341 -32.92439,-17.47733 -21.34264,-7.15335 -40.2298,-5.74424 -55.27856,4.1241 -9.84745,6.45755 -14.93661,14.79237 -14.92692,24.44666 0.0145,14.45223 4.9268,23.53415 15.27073,28.23275 6.45258,2.93098 18.10469,3.24609 23.12138,0.62525 z"
         id="path1038" />
      <path
         style="fill:#dd3c42;stroke-width:1.33333"
         d="M 670.00002,953.96804 C 647.13803,949.75475 622.44985,938.84112 602.66669,924.20277 580.6342,907.90007 546.16466,869.72339 526.03847,839.33336 506.58751,809.9629 496.97484,787.01726 469.343,704.00002 449.09453,643.16545 434.82513,605.58929 423.03804,582.0634 402.94729,541.96423 363.8169,492.98808 305.5434,435.00548 c -15.4791,-15.40183 -25.07432,-25.89349 -24,-26.24221 0.98446,-0.31955 9.4654,-2.73715 18.84652,-5.37244 9.38112,-2.63528 22.53193,-7.15199 29.22402,-10.03711 l 12.16747,-5.24568 13.44263,4.02363 c 18.36248,5.49622 29.14468,6.34296 36.92811,2.89998 3.29084,-1.45569 8.13208,-4.53333 10.75829,-6.83918 5.27052,-4.62758 7.18317,-5.07161 10.31792,-2.39534 3.95167,3.37372 30.08408,19.17603 39.72056,24.01907 5.28856,2.65791 14.86512,6.3538 21.28124,8.21312 11.29212,3.27233 12.73468,3.36929 45.0511,3.02807 31.68664,-0.33459 33.84194,-0.19856 42.35708,2.67321 19.16752,6.46431 38.22758,25.43516 71.93952,71.60275 38.64179,52.91888 51.48488,75.74353 69.77293,124 6.40922,16.91194 19.44989,56.74567 23.24379,71 1.53723,5.77564 3.54214,7.26586 4.92544,3.661 0.42331,-1.1031 0.10787,-10.59685 -0.70094,-21.0972 -3.789,-49.18916 -21.36497,-97.82427 -59.82535,-165.54493 -19.05108,-33.54497 -32.35547,-51.76146 -58.55538,-80.17461 -6.84108,-7.41898 -12.43833,-13.86898 -12.43833,-14.33333 0,-0.46435 4.65,-0.85313 10.33333,-0.86397 11.59444,-0.0221 24.53184,-2.66694 32.21236,-6.58524 2.82063,-1.43899 9.36656,-7.21582 14.54652,-12.83743 l 9.41811,-10.2211 23.07817,13.68458 c 27.29009,16.18207 39.80723,24.67004 70.38054,47.72549 12.53331,9.45142 24.24708,17.96535 26.03061,18.91987 4.3597,2.33324 6.08434,0.77227 12.35467,-11.18232 2.73601,-5.21628 10.82557,-18.31324 17.9768,-29.10435 7.15123,-10.79112 13.00223,-20.5215 13.00223,-21.6231 0,-2.04599 -21.41023,-21.57014 -59.1558,-53.94463 -27.9714,-23.99116 -43.76052,-35.923 -61.43738,-46.42823 -26.61359,-15.81625 -43.53972,-20.67053 -61.87745,-17.74597 -13.96619,2.22737 -32.89346,8.44436 -40.61332,13.34016 -8.90798,5.64926 -20.24933,11.19726 -28.91606,14.14525 -5.69377,1.93673 -11.05961,2.47656 -24,2.41447 -18.81656,-0.0903 -27.79524,-2.25308 -56,-13.48936 -20.52804,-8.17802 -31.64742,-11.06044 -46,-11.9244 -27.01308,-1.62607 -52.50496,9.44329 -73.54555,31.93574 -7.41826,7.93014 -11.50966,13.74252 -30.22568,42.93974 -10.92982,17.05064 -23.99704,23.73156 -61.56211,31.47505 -10.26667,2.11634 -20.46667,3.85368 -22.66667,3.86078 -6.04371,0.0195 -14,2.57162 -14,4.49074 0,0.93538 4.95,5.95162 11,11.1472 21.755,18.68263 65.11472,64.14951 79.17888,83.02677 17.75956,23.8373 31.22223,43.55998 44.14133,64.66666 20.89186,34.13226 31.75586,56.76967 39.64949,82.61805 2.47159,8.09341 7.78236,25.21529 11.80171,38.04862 8.67046,27.68382 19.4946,64.85198 25.6274,88.00001 4.40174,16.61422 8.43269,29.01077 13.78145,42.38269 1.55087,3.87715 2.81975,7.6184 2.81975,8.31388 0,1.7789 -12.31519,-3.25337 -23.04134,-9.41521 -14.05865,-8.07626 -27.26805,-18.60343 -40.37069,-32.17323 -27.78783,-28.7786 -48.49294,-66.31445 -81.45994,-147.67702 -23.65073,-58.37 -35.32122,-80.94101 -60.85119,-117.68767 -22.65662,-32.61091 -37.02412,-49.94233 -78.56081,-94.76751 -9.35585,-10.09656 -17.40555,-19.93081 -17.88821,-21.8539 -2.07038,-8.24904 0.69397,-10.95238 34.17217,-33.41785 34.39627,-23.08154 52.11696,-43.34553 69.19456,-79.12546 4.35214,-9.11831 15.19404,-34.80874 24.09315,-57.08985 21.39345,-53.56386 27.4668,-66.10553 36.35795,-75.08037 18.00008,-18.16952 47.88009,-24.4329 82.13077,-17.21607 28.74451,6.05664 51.83408,18.77496 79.99829,44.06507 10.53038,9.45577 15.93608,13.44149 17.84085,13.15439 2.13625,-0.32199 3.64785,-3.0492 6.92443,-12.49299 5.07708,-14.63319 10.81929,-23.88659 19.93448,-32.12383 8.02649,-7.2534 14.85708,-10.56075 27.22328,-13.18141 25.39446,-5.38164 52.60485,0.57113 84.72916,18.53606 20.94789,11.71474 43.61993,31.89281 59.47171,52.9297 6.54535,8.68633 29.43472,45.40532 29.43472,47.219 0,2.13779 27.25108,50.39516 33.11987,58.65007 9.77245,13.74571 37.43004,41.64337 53.46463,53.92872 7.99272,6.12384 19.05849,12.80665 30.32752,18.31534 9.75866,4.77036 18.64564,9.96205 19.74884,11.53709 1.18077,1.68579 2.00581,5.80769 2.00581,10.02111 0,7.00009 -0.16577,7.3086 -7.54253,14.03665 -4.1484,3.78359 -13.37899,12.63732 -20.51243,19.67495 -11.51127,11.35668 -13.73692,14.35565 -19.79032,26.66666 -7.17539,14.59284 -16.15472,43.31931 -16.15472,51.68181 0,3.82465 3.02473,10.15725 13.48239,28.2267 34.81562,60.1569 47.25952,89.5147 57.72338,136.18185 5.51406,24.59178 6.54015,35.52305 5.73387,61.0846 -1.04305,33.06796 -7.75569,69.88885 -16.95848,93.0224 -4.64543,11.67746 -15.55776,30.63248 -24.42568,42.42808 -8.08951,10.76019 -29.89661,31.70471 -43.55316,41.83043 -19.96198,14.8009 -46.33499,26.13768 -76.19012,32.7513 -14.06576,3.11589 -53.17973,3.8723 -67.14554,1.2985 z m 15.2222,-91.24547 c 12.06333,-6.06532 15.22175,-9.45722 17.44817,-18.73801 2.25892,-9.41623 0.58182,-15.40161 -14.00566,-49.98454 -6.80524,-16.13333 -16.59279,-39.53333 -21.75012,-52 -11.80963,-28.54705 -21.88847,-51.52953 -31.57522,-72 -11.13916,-23.5398 -23.33937,-52.04656 -23.33937,-54.53431 0,-1.79908 1.36324,-1.48258 7.96197,1.84844 12.54934,6.3349 21.74404,5.02 25.13459,-3.59436 4.20668,-10.68788 5.75437,-20.72703 4.19653,-27.22084 -2.74657,-11.44899 -8.11806,-16.53507 -44.25774,-41.90604 -60.53643,-42.49809 -59.61266,-41.92623 -67.72541,-41.92623 -8.10601,0 -11.8461,3.3488 -17.61288,15.77019 -36.44992,78.51157 -36.82553,79.58372 -32.33757,92.30395 3.16024,8.95711 8.022,14.23553 20.90108,22.69239 15.70293,10.31109 22.97343,12.4104 30.14212,8.70332 5.19595,-2.68694 8.07763,-6.30002 10.85021,-13.60408 1.34251,-3.53671 3.04139,-6.63052 3.7753,-6.87516 0.73389,-0.24463 21.85501,50.97418 46.93581,113.81961 25.0808,62.84542 47.12456,116.56598 48.98614,119.37901 1.86157,2.81304 6.11221,6.92125 9.44586,9.12936 8.3969,5.56188 13.75432,5.3097 26.82619,-1.2627 z m 175.71005,-82.66672 c 2.91384,-1.77668 4.68741,-4.20461 5.59677,-7.66168 1.38383,-5.26087 5.48075,-77.1367 5.45796,-95.7537 -0.0212,-17.3244 -6.55565,-28.21734 -24.47681,-40.80288 -7.50968,-5.27384 -10.31807,-6.50424 -14.84595,-6.50424 -6.73401,0 -9.33448,2.44203 -11.13529,10.45686 -0.71067,3.16293 -1.63779,6.09645 -2.06027,6.51893 -0.42248,0.42248 -19.1339,-36.24728 -41.58091,-81.48836 -22.44701,-45.2411 -42.27996,-84.00021 -44.07321,-86.13137 -6.53559,-7.76709 -11.4303,-9.68614 -23.32737,-9.14588 -12.93582,0.58746 -15.8205,2.91435 -15.8205,12.76143 0,7.13704 -1.04688,4.75744 45.20429,102.75088 19.13764,40.54737 34.79571,74.00342 34.79571,74.34678 0,0.34336 -3.38447,-1.18176 -7.52103,-3.38916 -7.71469,-4.11679 -14.67448,-5.073 -19.21949,-2.64059 -3.80631,2.03708 -6.14864,7.49395 -8.47041,19.73332 -1.63514,8.61974 -1.77351,12.45103 -0.64751,17.92814 1.99167,9.68796 8.63985,20.22725 16.52511,26.19705 12.2525,9.2762 90.15212,62.90952 93.09603,64.09595 4.61046,1.85807 7.92268,1.52123 12.50288,-1.27148 z M 584.37126,218.5861 c 2.77085,-0.76947 8.39786,-4.13576 12.50446,-7.48063 4.1066,-3.34486 9.49433,-6.64148 11.97273,-7.3258 5.68509,-1.56973 16.00954,0.25542 27.22566,4.81294 10.53,4.27872 14.61472,4.30829 18.53607,0.13421 4.15212,-4.41972 4.16153,-15.34697 0.0203,-23.4646 -7.02483,-13.76979 -24.97563,-27.87099 -43.24764,-33.97307 -19.99725,-6.67824 -36.25514,-3.31383 -52.45145,10.85432 -8.69416,7.60543 -12.2734,14.99992 -12.23536,25.2775 0.056,15.14432 8.9426,26.76453 23.9621,31.33325 4.7969,1.45916 7.99457,1.41995 13.7132,-0.16812 z m -193.73957,-2.56824 c 2.85566,-1.45685 5.98763,-3.70685 6.95994,-5 6.58122,-8.75291 14.2564,-10.63732 28.49414,-6.99592 14.08662,3.60275 22.94818,3.47808 28.71707,-0.40401 9.00893,-6.06244 9.48751,-18.63871 1.07391,-28.22127 -4.86515,-5.54109 -27.60635,-17.03312 -39.77007,-20.09738 -12.10363,-3.04913 -29.78601,-2.83685 -38.46732,0.46179 -11.07722,4.209 -19.66358,11.3267 -23.75707,19.69351 -3.11869,6.37439 -3.47576,8.35773 -2.75172,15.28488 1.01135,9.67607 4.7174,17.33095 10.5238,21.73696 8.3684,6.35011 20.55295,7.83923 28.97732,3.54144 z"
         id="path1036" />
      <path
         style="fill:#e6272f;stroke-width:1.33333"
         d="m 672.66669,953.92336 c -24.2678,-4.56817 -49.65447,-15.80745 -70,-30.99065 C 580.75142,906.57807 546.20023,868.40444 526.62387,838.91737 507.29292,809.79997 498.08682,787.81654 470.57633,705.08055 440.23355,613.82657 423.89295,575.88764 400.50236,542.38579 379.59282,512.4375 346.16732,474.13096 306.28461,434.40971 l -25.04875,-24.94734 5.71542,-1.46856 c 16.81532,-4.32069 31.07886,-8.84994 42.5657,-13.51636 l 12.8503,-5.22029 14.48304,4.19435 c 23.90114,6.92186 34.95253,5.66424 47.56913,-5.41328 l 4.49358,-3.94542 14.8829,9.83066 c 18.7555,12.38865 36.15452,20.98845 51.53742,25.47336 11.83516,3.45056 12.39378,3.48652 40.66667,2.61826 39.01476,-1.19814 49.24984,1.01766 66,14.28839 17.6122,13.95371 61.70633,70.81712 86.19391,111.15494 19.77597,32.57649 37.55488,75.58877 53.13203,128.5416 6.25565,21.26537 8.11918,24.77384 10.64848,20.0478 2.26173,-4.22608 -0.50754,-36.71707 -4.77707,-56.0478 -7.15507,-32.39535 -16.43422,-57.31358 -35.50064,-95.33334 -27.59422,-55.02476 -49.18178,-87.23511 -80.87148,-120.66667 -5.21344,-5.5 -9.48189,-10.15 -9.48545,-10.33333 -0.004,-0.18333 3.61885,-0.33333 8.04977,-0.33333 9.97746,0 26.85777,-3.39176 33.34084,-6.69918 2.67473,-1.36454 9.1299,-7.0498 14.34482,-12.63386 8.7799,-9.40143 9.70776,-10.03551 12.53656,-8.56715 5.15974,2.67832 38.54392,22.68627 47.72157,28.60071 4.76666,3.07182 21.56666,15.28074 37.33333,27.13094 15.76667,11.8502 30.01532,21.90064 31.66368,22.33431 4.86936,1.28108 6.49681,-0.14499 11.88215,-10.41175 2.81401,-5.36472 10.86008,-18.45402 17.88016,-29.08736 7.02008,-10.63333 13.19883,-20.07093 13.73056,-20.97244 0.53172,-0.90152 0.36179,-2.76953 -0.37763,-4.15116 -3.126,-5.84098 -80.61223,-72.31895 -101.37755,-86.97511 -35.74691,-25.23017 -56.53816,-32.74454 -81.72924,-29.53857 -14.9044,1.89683 -30.03069,6.81179 -40.54804,13.1752 -17.90846,10.83532 -30.94839,15.62637 -46.77542,17.18593 -15.20152,1.49792 -26.17382,-1.3356 -75.00984,-19.37077 -13.46423,-4.97233 -33.69325,-8.28179 -43.96204,-7.19213 -35.86935,3.8062 -65.24398,26.19912 -87.73028,66.87873 -13.89055,25.12915 -29.9647,33.79332 -76.31319,41.13378 -21.43302,3.39446 -27.25831,4.91257 -27.6975,7.21813 -0.23033,1.20913 4.16435,5.97117 10.65271,11.5432 17.18852,14.76104 64.75618,63.66964 75.60067,77.73188 26.7028,34.626 54.7334,78.58222 70.8166,111.0511 11.10968,22.42835 22.67095,56.48681 43.09324,126.94891 4.03835,13.93333 8.61194,30.43333 10.16351,36.66667 3.40917,13.69597 9.8792,33.83852 14.28052,44.45822 1.77607,4.28536 3.04013,8.35879 2.80905,9.05204 -0.23109,0.69327 -6.17108,-1.66749 -13.19998,-5.24612 C 412.09064,787.92294 380.36785,744.96714 340.7177,648.66669 308.67754,570.84899 301.77997,556.85722 277.67196,520.778 c -23.9031,-35.77252 -40.91069,-56.71468 -82.23899,-101.26435 -10.01516,-10.79581 -18.7909,-21.15821 -19.50163,-23.02756 -2.75524,-7.24684 0.98219,-10.83985 34.73533,-33.39323 13.94502,-9.31785 23.07902,-16.65866 32.77286,-26.33888 22.9987,-22.96638 32.44341,-40.2043 60.31712,-110.08731 21.51875,-53.95029 24.99305,-61.49141 32.62199,-70.80727 10.71004,-13.07825 24.5386,-19.70909 47.15089,-22.60899 21.01418,-2.69496 51.6915,3.56411 74.75248,15.25169 12.61659,6.39424 25.18078,15.58438 42.93214,31.40297 10.59068,9.43758 16.05175,13.43667 17.97045,13.15962 2.18116,-0.31496 3.77415,-3.2232 7.63396,-13.937 9.0406,-25.09417 20.97318,-37.22947 43.22159,-43.95593 12.53325,-3.78923 34.01606,-3.18051 49.2932,1.39674 26.70038,7.9998 54.86964,24.84537 75.77863,45.31656 22.30604,21.839 34.6558,40.12727 59.68108,88.37935 18.24832,35.18519 31.1422,53.13164 53.59496,74.59663 20.07418,19.19104 35.58201,30.45328 54.27867,39.41879 19.24235,9.22716 20.98915,10.52964 22.10602,16.483 1.32685,7.07278 -1.59834,13.34252 -9.1406,19.59161 -22.72651,18.82987 -34.53856,33.19671 -42.31155,51.46296 -4.83088,11.35239 -13.32054,40.24963 -13.32054,45.34066 0,4.20692 0.8449,5.87549 17.30494,34.17529 31.76683,54.6168 43.58353,82.87252 53.90084,128.88604 5.47815,24.43162 6.50331,35.35666 5.78519,61.65219 -1.11839,40.9526 -8.50155,77.11967 -20.98463,102.79511 -9.93991,20.44458 -19.09344,33.14336 -36.63881,50.8294 -31.55855,31.81155 -57.14046,46.08963 -100.13903,55.89083 -20.00199,4.5593 -49.78631,5.69428 -66.56183,2.53644 z m 13.53113,-90.50167 c 12.98639,-6.50481 15.25072,-9.11532 17.60596,-20.29766 1.93828,-9.20262 0.0925,-15.94424 -12.6892,-46.34599 -5.57537,-13.26124 -14.28583,-34.61135 -19.35659,-47.44468 -9.06428,-22.94036 -12.52225,-30.73896 -33.10792,-74.66667 -14.27336,-30.4579 -25.83844,-57.25606 -25.04989,-58.04462 0.36324,-0.36322 4.11096,0.91927 8.32827,2.85002 9.37852,4.29364 17.165,3.8503 21.53138,-1.22591 4.04296,-4.70023 8.70775,-24.25806 7.28766,-30.55459 -1.3451,-5.96397 -6.66206,-15.29256 -10.95392,-19.2186 -2.87716,-2.63193 -46.2481,-33.36477 -75.41355,-53.4384 -14.15188,-9.74027 -22.04448,-13.63253 -27.71334,-13.66697 -6.38841,-0.0388 -12.00905,4.31722 -15.72745,12.18888 -24.75675,52.40868 -36.01282,78.43089 -36.59588,84.6037 -0.9491,10.04815 5.27925,22.60194 14.99685,30.22745 10.34919,8.12112 21.11431,14.36504 27.07627,15.7046 10.54975,2.37037 19.85079,-3.52062 23.65849,-14.98455 1.18043,-3.55393 2.64095,-6.15595 3.2456,-5.78225 0.60464,0.37369 21.03046,50.62834 45.39068,111.67701 24.36023,61.04866 46.06118,114.14999 48.22433,118.00297 3.52432,6.27746 11.09736,13.0933 17.06445,15.35825 5.12812,1.94651 11.0996,0.61705 22.1978,-4.94199 z m 173.08981,-81.31663 c 8.39294,-3.5068 8.83888,-5.7037 11.65673,-57.42686 1.39864,-25.67301 2.26061,-49.74174 1.91549,-53.48609 -1.4023,-15.21404 -14.48589,-31.73745 -32.46028,-40.99448 -9.40186,-4.84206 -17.9326,-0.92954 -19.81159,9.08635 -0.50716,2.70337 -1.39966,4.42041 -1.98337,3.81564 -0.58369,-0.60479 -18.87565,-36.7996 -40.6488,-80.43294 -21.77315,-43.63333 -40.81205,-81.05468 -42.30868,-83.15853 -4.69692,-6.60264 -13.90136,-11.50916 -21.57481,-11.5007 -15.63541,0.0172 -21.53589,4.56315 -20.45974,15.76276 0.67395,7.01391 -0.23851,4.97802 46.93754,104.72842 17.29745,36.57424 31.4499,67.03435 31.4499,67.68914 0,0.65477 -2.98005,-0.3196 -6.62234,-2.16528 -3.64228,-1.8457 -8.17208,-3.3558 -10.06622,-3.3558 -4.4774,0 -10.8647,3.34058 -12.60508,6.59249 -2.0368,3.8058 -5.37302,20.74625 -5.37302,27.28277 0,11.51442 6.10944,24.08978 15.45522,31.81222 7.82355,6.46463 91.1575,63.75383 95.44854,65.61756 5.56245,2.41596 5.58671,2.41625 11.05051,0.13333 z M 387.7238,218.68487 c 0.94808,-0.0107 4.54808,-2.63925 8,-5.84276 11.6992,-10.85726 17.00491,-12.06662 32.94288,-7.50877 11.55941,3.30569 17.09223,3.32292 24.24491,0.0755 7.27906,-3.3048 10.26998,-8.91452 9.42753,-17.68212 -0.88596,-9.22032 -5.90761,-14.80171 -20.22348,-22.47768 -18.37687,-9.85342 -28.06373,-12.5301 -45.44896,-12.55845 -13.15005,-0.0215 -15.45504,0.34559 -22.29076,3.5495 -17.80927,8.3472 -26.94215,22.59956 -23.81762,37.16872 2.10862,9.83215 6.16187,16.81425 12.00623,20.68187 5.23153,3.46206 15.86123,6.08877 20.76882,5.1322 1.46666,-0.28588 3.44237,-0.52799 4.39045,-0.538 z m 200.67576,-0.88042 c 2.34692,-1.20758 6.88523,-4.49316 10.08512,-7.30131 9.38722,-8.238 18.53599,-8.47909 38.20729,-1.00688 9.95334,3.78081 11.28878,3.99176 14.75365,2.33043 10.98195,-5.26564 9.29011,-23.15172 -3.55291,-37.56126 -20.22537,-22.69237 -53.31325,-33.10921 -73.57073,-23.1618 -22.66736,11.1308 -32.63926,27.71523 -27.5778,45.86515 2.1345,7.65412 12.78993,19.03992 19.9225,21.28808 7.05436,2.22351 16.93182,2.01788 21.73288,-0.45241 z"
         id="path1034" />
      <path
         style="fill:#e71b24;stroke-width:1.33333"
         d="M 671.46279,952.60762 C 647.67825,948.1249 624.08354,937.82238 604.71833,923.46395 582.02215,906.63576 547.74067,868.75649 527.3718,838.00003 507.9081,808.61033 498.18568,785.39798 470.66133,702.60333 441.73355,615.58703 427.79864,582.51362 406.08365,549.33335 385.98021,518.6155 350.05954,476.66735 307.88714,434.65949 l -24.77952,-24.68285 18.11286,-5.09583 c 9.96208,-2.8027 23.20962,-7.30246 29.43901,-9.99946 l 11.32613,-4.90363 14.67387,4.28065 c 23.63391,6.89448 35.7235,5.68135 47.63868,-4.78033 l 4.79048,-4.20609 14.39191,9.36826 c 19.78229,12.8771 35.18109,20.59484 49.26831,24.69284 11.61316,3.3783 12.75288,3.4567 44.58448,3.06694 37.36407,-0.4575 43.14453,0.53389 57.60385,9.8794 14.24171,9.20486 36.52502,34.78964 65.41422,75.10592 28.65151,39.98457 42.99343,65.50665 57.66344,102.61471 6.6374,16.7894 22.52136,64.29443 26.63764,79.66667 2.10911,7.87641 2.80142,9 5.54542,9 3.75362,0 3.85953,-1.7562 1.76318,-29.23748 -3.58397,-46.98243 -21.68688,-96.58655 -59.64311,-163.42919 -18.62962,-32.80763 -30.57741,-49.27601 -56.8307,-78.33334 l -12.95018,-14.33333 h 9.15324 c 21.60551,0 33.0301,-4.62066 45.96339,-18.5898 4.79181,-5.17562 9.06187,-9.4102 9.48899,-9.4102 1.10358,0 39.82189,23.19344 50.19063,30.06572 11.67744,7.73966 21.83789,14.96781 30.66666,21.81628 4.03334,3.12865 12.73334,9.70884 19.33334,14.62266 24.00534,17.87239 23.38589,17.8818 33.22648,-0.50466 2.7474,-5.13334 10.64538,-17.84951 17.55106,-28.25815 11.66101,-17.57615 14.03137,-23.00372 11.53538,-26.41333 -1.08035,-1.47579 -46.98423,-41.78839 -66.97959,-58.82119 -19.91223,-16.96199 -36.78017,-29.40484 -52.59318,-38.79603 -28.37169,-16.84967 -45.40561,-21.2132 -67.22602,-17.22111 -16.78274,3.07044 -28.76726,7.28031 -39.93583,14.02846 -33.97918,20.53052 -56.38182,20.9309 -104.24498,1.86306 -21.191,-8.44212 -31.81191,-11.12154 -47.33333,-11.94116 -40.42966,-2.13488 -72.21917,19.0507 -99.37401,66.22611 -11.11501,19.30984 -19.52718,26.63415 -37.39718,32.56102 -11.76487,3.902 -37.71255,9.55624 -52.39986,11.41841 -10.97763,1.39183 -15.49563,3.09191 -15.49563,5.83085 0,0.94404 4.97487,5.98716 11.05527,11.20691 22.44311,19.26643 67.67771,66.72501 82.46778,86.52235 35.9064,48.06276 66.40477,100.21648 77.46001,132.46047 11.62676,33.91087 31.81322,101.01064 41.7168,138.66667 2.41086,9.16667 6.58844,22.66667 9.28354,30 7.38206,20.08655 7.37446,18.48728 0.0731,15.35753 -33.69654,-14.44402 -65.62136,-46.24226 -91.77435,-91.4105 -6.24546,-10.78639 -24.94877,-49.05239 -24.94877,-51.04389 0,-0.58792 -1.1692,-3.48889 -2.59823,-6.44662 -3.25853,-6.74442 -13.32165,-31.21414 -20.75012,-50.45652 -15.20737,-39.39255 -31.82333,-70.49349 -57.20657,-107.07645 -20.96455,-30.21463 -34.96142,-47.04995 -76.43479,-91.93511 -9.71101,-10.50988 -18.02715,-20.58614 -18.48032,-22.3917 -0.50353,-2.00627 -0.001,-4.53795 1.29089,-6.51048 1.86058,-2.83959 19.36827,-15.55602 44.17914,-32.08879 13.09125,-8.72339 32.06264,-27.98372 41.45402,-42.08542 11.27922,-16.93637 21.04522,-37.74073 40.3289,-85.91207 26.19617,-65.43893 30.70357,-73.63283 45.91223,-83.46265 9.85602,-6.37027 17.82172,-8.90707 33.88164,-10.79015 20.97439,-2.45932 53.63332,3.87443 73.93947,14.33953 10.10665,5.20863 28.07662,18.50795 42.96421,31.79723 8.6976,7.76383 16.87414,14.11604 18.17008,14.11604 3.27856,0 4.38674,-1.81045 8.56938,-14 4.99041,-14.54364 10.65453,-23.65097 19.98697,-32.13705 12.26908,-11.15639 29.94283,-16.30043 50.70973,-14.75935 14.94867,1.10932 28.0751,5.08719 46.75005,14.16725 36.72568,17.85663 62.85653,42.59293 87.39321,82.72915 6.61735,10.82443 15.20683,26.54506 28.41191,52.00001 7.30575,14.08304 7.78788,14.87317 17.52821,28.726 11.167,15.88185 36.49343,41.7725 54.00001,55.20301 7.78942,5.97581 18.57069,12.55135 28,17.07732 8.43333,4.04792 17.28333,8.80799 19.66666,10.57795 3.86806,2.87256 4.33334,3.92411 4.33334,9.79349 0,5.96326 -0.53002,7.10514 -5.69311,12.26548 -3.13121,3.12955 -9.28121,8.66211 -13.66667,12.2946 -19.17424,15.88207 -30.98365,35.15444 -40.07198,65.39549 -7.50317,24.96645 -7.69685,23.90936 10.02514,54.71594 35.13302,61.07265 45.41386,85.51662 56.91596,135.32486 5.0079,21.68595 5.07127,22.30761 5.09227,49.9592 0.0187,24.54412 -0.42513,30.55078 -3.59543,48.66667 -4.55152,26.00868 -8.76801,41.64527 -15.34116,56.89183 -18.69698,43.36804 -65.64339,87.35695 -109.76987,102.85467 -22.26634,7.8202 -41.07801,11.23863 -64.56183,11.73211 -14.9914,0.31502 -24.46582,-0.1421 -31.87056,-1.53768 z m 15.19779,-87.93786 c 13.0388,-6.54848 15.26773,-8.96361 18.0762,-19.58629 2.58445,-9.77531 0.97927,-18.32354 -7.10376,-37.83027 -3.6282,-8.75591 -10.02591,-25.21984 -14.21713,-36.58651 -12.9513,-35.12411 -19.5499,-51.22227 -22.14555,-54.02697 -1.37108,-1.4815 -4.96681,-8.0815 -7.99053,-14.66667 -3.02371,-6.58516 -8.67898,-18.57303 -12.56727,-26.6397 -15.63747,-32.44164 -25.46889,-55.0214 -24.41547,-56.07484 0.33187,-0.33186 2.61036,0.39782 5.06332,1.62151 2.45295,1.22369 7.26467,2.4944 10.6927,2.8238 9.3746,0.90077 13.77962,-3.5986 17.98525,-18.37047 3.50197,-12.30039 3.33979,-16.90788 -0.91823,-26.08549 -3.73156,-8.04292 -10.92693,-14.21438 -41.12009,-35.26863 -15.03334,-10.48303 -30.14215,-21.21687 -33.57514,-23.85297 -10.26908,-7.88536 -25.68626,-17.13124 -31.44045,-18.85524 -7.11099,-2.1305 -13.71768,-0.75256 -17.9588,3.7456 -5.258,5.57668 -41.32412,84.93496 -42.07123,92.57165 -1.27901,13.07358 6.09532,25.34698 21.84422,36.35624 13.09192,9.1519 18.94296,11.75392 26.68202,11.86579 8.79418,0.12707 15.26784,-4.44404 18.58148,-13.12068 1.2651,-3.31261 2.69778,-6.02293 3.18374,-6.02293 0.48594,0 20.95358,50.25 45.48364,111.66667 24.53005,61.41666 46.40093,114.36667 48.60197,117.66667 2.20104,3.3 6.9197,7.95 10.4859,10.33333 9.09845,6.08057 13.9848,5.79875 28.84321,-1.6636 z m 172.38227,-81.15238 c 6.2849,-2.66012 8.79955,-6.17521 10.22091,-14.2873 0.69675,-3.97654 2.24797,-27.93006 3.44717,-53.23006 2.02991,-42.82597 2.02751,-46.44715 -0.0348,-52.48036 -3.78521,-11.07385 -9.5765,-18.94923 -19.077,-25.94208 -11.52972,-8.48652 -16.41914,-10.91089 -22.00486,-10.91089 -5.24395,0 -11.59425,5.034 -11.59425,9.19097 0,1.45841 -0.48874,2.95371 -1.08609,3.32289 -0.59736,0.36919 -19.04736,-35.36009 -41,-79.39839 -36.6318,-73.48552 -40.44269,-80.54772 -46.34455,-85.88373 -7.3858,-6.67767 -11.94274,-7.93079 -24.10421,-6.6284 -12.70338,1.36041 -16.80272,6.43988 -14.8977,18.4596 0.98642,6.22385 2.2596,9.03292 45.95581,101.39384 16.94554,35.8179 30.81008,65.60322 30.81008,66.1896 0,0.58639 -2.22687,-0.0692 -4.94859,-1.45678 -17.00896,-8.67166 -27.70581,3.99192 -27.71476,32.8104 -0.004,12.27181 2.81385,19.5295 11.07573,28.52857 5.36632,5.84515 90.93357,65.68063 99.58762,69.63966 6.45111,2.95122 6.36153,2.94601 11.70949,0.68246 z M 590.18332,218.1991 c 2.09919,-1.11351 5.32659,-3.45819 7.17202,-5.21041 10.36657,-9.84304 20.61947,-10.6089 38.16233,-2.8506 12.47827,5.51846 20.13331,3.66628 23.19552,-5.61232 7.75924,-23.51075 -31.26001,-57.90926 -66.18087,-58.34357 -8.4421,-0.10493 -10.60673,0.4452 -19.9826,5.079 -14.26956,7.0524 -23.60932,16.42691 -26.59362,26.69255 -5.31595,18.28623 4.51104,36.03703 23.36862,42.21147 4.6963,1.53768 16.31846,0.44219 20.8586,-1.96612 z m -198.14969,-0.88291 c 2.8934,-1.4761 6.20462,-4.12441 7.3583,-5.88513 4.70167,-7.17565 15.62148,-9.17817 28.69942,-5.263 14.08068,4.21537 27.81786,1.94655 32.62372,-5.38811 5.16058,-7.87605 3.13608,-20.63886 -4.40539,-27.77226 -4.52043,-4.27583 -25.35193,-15.06274 -34.30967,-17.76614 -18.30305,-5.52377 -37.5267,-4.94607 -50.92012,1.53024 -8.80041,4.25539 -19.98447,16.25355 -21.20241,22.7458 -3.23791,17.25948 5.4641,35.03067 19.17768,39.16454 6.87592,2.0727 17.47295,1.44277 22.97847,-1.36594 z"
         id="path1032" />
    </g>
    <rect
       style="fill:none"
       id="rect1086"
       width="1217.0419"
       height="1291.6718"
       x="-962.53467"
       y="-137.77832" />
  </g>
</svg>
