<?xml version="1.0" encoding="utf-8"?>
<!-- Generator: Adobe Illustrator 14.0.0, SVG Export Plug-In . SVG Version: 6.00 Build 43363)  -->
<!DOCTYPE svg PUBLIC "-//W3C//DTD SVG 1.1//EN" "http://www.w3.org/Graphics/SVG/1.1/DTD/svg11.dtd">
<svg version="1.1" id="Layer_1" xmlns="http://www.w3.org/2000/svg" xmlns:xlink="http://www.w3.org/1999/xlink" x="0px" y="0px"
	 width="612px" height="792px" viewBox="0 0 612 792" enable-background="new 0 0 612 792" xml:space="preserve">
<g>
	<polygon fill-rule="evenodd" clip-rule="evenodd" fill="#FFFFFF" points="209,300 401.756,300 401.756,492.756 209,492.756 
		209,300 	"/>
	<path fill-rule="evenodd" clip-rule="evenodd" d="M384.149,362.206c-25.257-14.837-22.474-27.994-31.604-45.447
		c0,0-1.569-4.624-9.144-7.468c-16.356-3.759-28.65,11.284-31.596,13.776c0.545-4.99-11.154-25.778-33.424-6.568
		c-15.29,10.952-15.258,37.677-41.137,47.983c-0.426-0.236-4.285,2.525-0.299,6.32c0,0,11.583,7.47,11.965,20.923
		c-0.715,2.699-10.043,12.34-15.183,34.235c-9.724,55.166,50.81,82.287,79.377,31.067c0,0,21.274,0.237,33.456-28.637
		c7.79-16.68,8.318-30.546,27.967-51.974c5.504-5.822,9.221-9.219,9.221-9.219S387.321,364.471,384.149,362.206L384.149,362.206z"/>
	<path fill-rule="evenodd" clip-rule="evenodd" fill="#FFFFFF" d="M267.741,351.183c0.989-2.378,2.006-2.686,2.006-2.686
		s4.436-4.226,12.466-5.28c9.168-0.639,13.027,3.791,15.831,4.895c2.208,1.444,7.989,3.783,16.119-0.556
		c6.877-4.609,14.868-4.03,14.868-4.03s6.043,0,10.269,4.225c7.137,7.521,9.813,14.801,9.983,15.481
		c-1.105,0.51-11.735,7.104-16.257-5.697c-12.084,14.212-24.388,6.738-26.681,0.623c-15.347,12.283-24.248,2.933-24.503-3.948
		C279.973,356.417,270.16,359.767,267.741,351.183L267.741,351.183z"/>
	<path fill-rule="evenodd" clip-rule="evenodd" fill="#FFFFFF" d="M283.173,322.163c2.338-8.486,12.678-9.083,12.678-9.083
		s9.064,0.057,10.174,6.322c1.546,5.581-2.687,7.648-2.687,7.648s-4.499,3.183-7.781-1.516c-4.197-2.171-6.204-0.218-6.204-0.218
		S280.973,329.317,283.173,322.163L283.173,322.163z"/>
	<path fill-rule="evenodd" clip-rule="evenodd" fill="#FFFFFF" d="M331.288,324.51c-2.491,0.906-6.571,1.919-7.152-3.349
		c1.629-5.392,8.663-7.182,8.663-7.182s10.305-1.925,13.393,3.478c0,0,1.657,3.778,0.848,6.45
		c-5.355,7.245-10.099,0.928-10.099,0.928S333.674,322.955,331.288,324.51L331.288,324.51z"/>
	<path fill-rule="evenodd" clip-rule="evenodd" fill="#FFFFFF" d="M275.893,379.77c-1.132,1.019-30.346,20.819-29.736,55.84
		c0.845,7.604,5.493,7.394,5.493,7.394s4.891,0.391,5.947-8.058c0.377-9.242,3.059-32.363,22.933-51.804
		C287.471,375.421,278.838,377.731,275.893,379.77L275.893,379.77z"/>
	<path fill-rule="evenodd" clip-rule="evenodd" fill="#FFFFFF" d="M319.023,388.602c-7.588,8.041-17.263,40.637-23.044,50.005
		c-0.113,0.68-10.603,14.648-2.268,20.678c8.411,2.348,14.145-8.815,16.438-17.31c1.193-3.66,4.608-37.273,21.383-53.406
		c3.364-3.237,4.887-4.854,5.279-6.847c0.239-1.218,0.135-2.364-0.42-2.735c-1.155-2.122-7.167,0.87-7.167,0.87
		S323.836,382.458,319.023,388.602L319.023,388.602z"/>
</g>
</svg>
